<?xml version="1.0" encoding="UTF-8"?>
<svg id="Capa_1" data-name="Capa 1" xmlns="http://www.w3.org/2000/svg" viewBox="0 0 1024 1024">
  <defs>
    <style>
      .cls-1 {
        fill: #008658;
      }

      .cls-2 {
        fill: #004154;
      }
    </style>
  </defs>
  <path class="cls-2" d="M266.97,273.54c3.74,1.22,9.17,2.23,16.28,3.03,18.14,2.03,29-5.42,32.58-22.36,2.17-10.26,3.38-23.63,3.63-40.11.58.98,1.13,1.05,1.65.2,11.49-18.96,25.98-35.99,43.47-51.09,44.87-38.7,96.65-57.97,155.35-57.81,24.81.07,46.03,4.34,72.33,9.51,12.9,2.55,24.39,2.69,34.47.4,11.83-2.67,17.33-9.62,24.67-15.99,2.02-1.75,5.11-2.54,9.26-2.36,10.58.45,21.07,8.33,25.68,18.31,3.06,6.61,4.51,13.94,4.34,22,0,.69.54,1.25,1.21,1.26.07,0,.14,0,.21-.02,32.18-5.55,63.53,6.77,84.62,31.58,17.44,20.51,29.02,48.66,27.01,75.87-.12,1.59-1,4.28-2.65,8.06-6.68,15.37-23.81,4.85-33-.76-.37-.21-.85-.09-1.07.27-.15.25-.14.56.02.8,16.86,25.21,24.32,56.16,15.34,85.18-1.57,5.14-3.79,9.74-6.64,13.81-.56.81-.54,1.89.04,2.69,25.45,34.21,25.59,78.61-.09,112.44-.97,1.28-1.2,2.98-.6,4.48,22.36,55.67,14.48,119.61-17.28,169.07-23.41,36.43-60.55,63.38-99.9,81.26-1.59.72-2.63,2.3-2.67,4.05-.65,25.01,25.5,35.52,40.69,48.5,5.97,5.12,7.51,11.61,4.63,19.46-2.84,7.73-5.54,13.41-8.11,17.01-50.6,70.82-148.2,80.04-226.1,59.41-58.39-15.46-113-43.54-156.62-84.4-8.66-8.11-16.83-17.54-24.52-28.3-4.39-6.15-7.31-12.34-8.75-18.59-2.29-10,6.3-15.23,13.18-20.06,22.21-15.54,36.45-35.87,42.71-60.97,6.24-24.96,5.99-53.4,2.61-80.42-.08-.65-.66-1.11-1.31-1.03-.02,0-.05,0-.07.01-14.36,2.45-28.35.5-41.98-5.83-51.2-23.83-69.17-89.75-56.14-140.57,1.97-7.72,5.69-14.95,11.13-21.69.63-.79.89-1.82.69-2.81-2.97-14.76-3.15-28.5-.53-41.24.26-1.29-.52-2.55-1.78-2.87-8.45-2.21-12.53-7.23-12.25-15.05,1.05-29.28,12.46-54.06,34.23-74.34ZM375.65,409.41c-.65,1.02-.48,1.56.51,1.6,5.18.24,11.29-.42,18.33-1.96,1.11-.24,2.24-.38,3.36-.42,5.63-.25,9.68-.83,12.16-1.74,2.96-1.11,6.3.07,9.22-.89.63-.21,1.13-.71,1.34-1.36,3.18-10.02,6.29-18.27,9.35-24.74,3.59-7.62,8.58-14.66,14.97-21.13,21.35-21.6,48.14-29.99,80.37-25.16,12.4,1.86,23.64,6.39,33.72,13.61,16.3,11.67,27.65,26.74,34.05,45.21.75,2.16,3.11,3.31,5.27,2.56.02,0,.03-.01.05-.02,7.08-2.58,14.7-3.6,22.85-3.05,3.3.22,6.81,2.03,10.15.51.7-.33,1.25-.91,1.54-1.63l11.58-29.31c4.31-7.17,9.69-12.7,16.15-16.59,29.53-19.26,59.67-21.79,90.41-7.59.3.14.66.06.87-.2.25-.28.27-.54.07-.78.53.1.97.08,1.31-.07.36-.16.56-.53.62-1.11,2.33-23.87-2.32-46.58-13.96-68.12-8.74-16.21-20.43-29.37-35.05-39.46-.52-.35-1.23-.22-1.57.29-.15.21-.21.47-.19.73,2,19.75-4.28,41.62-16.43,56.99-19.8,25.08-52.44,40.13-83.35,44.65-.68.1-1.36.08-2.03-.07-12.11-2.52-8.31-13.63-4.01-21.67,12.16-22.76,11.09-48.57-1.67-70.64-.32-.57-1.04-.76-1.61-.44-.35.2-.58.57-.59.98-1.25,27.68-21.27,52.47-45.05,65.87-17.44,9.81-36.23,14.27-56.34,13.36-7.15-.31-12.18-7.91-7.3-14.45,11.83-15.9,15.97-34.02,12.43-54.36-.07-.41-.46-.69-.88-.61-.22.04-.41.17-.53.37-12.96,22.7-31.74,38.67-56.34,47.92-11.95,4.48-25.83,6.24-41.62,5.26-.57-.03-1.04.41-1.07.98,0,.09,0,.18.02.27,9.23,38.72,1.48,73.83-23.25,105.33-.23.3-.19.73.09.97.12.1.28.15.44.15l1.63-.02ZM782.29,295.59s.02-.26.02-.58h0c0-.32,0-.58-.02-.58h0s-.02.26-.02.58h0c0,.32,0,.58.02.58h0ZM719.02,472.21c27.04-2.96,47.92-30.69,48.73-57.48.65-22.06-7.27-39.22-23.76-51.49-11.25-8.36-23.9-11.77-37.95-10.24-14.03,1.53-25.64,7.58-34.83,18.15-13.48,15.53-17.53,34-12.14,55.41,6.52,26.01,32.89,48.59,59.95,45.65ZM572.62,420.23c0-35.11-28.47-63.58-63.58-63.58h0c-35.11,0-63.58,28.47-63.58,63.58h0c0,35.11,28.47,63.58,63.58,63.58s63.58-28.47,63.58-63.58ZM273.92,527.32c6.47,11.77,16.28,20.12,29.42,25.05,13.41,5.03,26.77,4.59,41.02.36,6.52-1.94,11.54,6.46,12.47,11.56.8,4.36,2.36,9.14,4.68,14.32,13.27,29.74,32.04,54.75,56.3,75.05,2.61,2.18,5.37,4.51,8.26,6.97,2.63,2.24,5.48,4.42,8.55,6.55,16.11,11.12,33.95,20.53,53.51,28.22,7.29,2.85,15.56,5.43,24.81,7.75,12.69,3.16,21.16,5.08,25.39,5.75,3.76.58,9.61.48,17.55-.31,44.95,3.33,86.49-6.54,124.6-29.6,18.22-11.02,33.23-24.04,45.03-39.06,31.61-40.25,42.27-86.88,31.98-139.9-.25-1.28-1.69-5-4.32-11.18-.3-.67-1.04-1.03-1.74-.82l-17.15,5.19c-.13.04-.27.07-.4.07-11.92,1.05-22.8.59-32.65-1.38-2.88-.58-6.08-1.55-9.6-2.92-22.49-8.82-39.77-20.73-52.16-41.33-5.32-8.89-8.06-19.2-10-29.84-.13-.73-.71-1.3-1.45-1.43-7.79-1.29-20.49-1.22-27.15,3.96-.68.53-1.1,1.31-1.16,2.16-1.34,23.96-10.06,44.19-26.17,60.68-31.33,32.07-81.71,35.25-117.27,10.67-19.6-13.54-34.34-36.9-37.12-60.42-.09-.82-.83-1.41-1.65-1.31l-43.05,4.39c-1.16.12-2,1.17-1.88,2.33,0,.03,0,.05,0,.08,1.07,7.5,1.86,14.77,2.38,21.82.4,5.63.01,9.75-1.16,12.36-5.61,12.56-22.11,7.75-25.63-3.27-6.41-20.06-14.97-41.15-30.87-54.07-10.62-8.62-25.94-10.91-37.72-3.85-6.67,4.01-11.51,8.77-14.52,14.27-12.8,23.36-11.94,48.26-4.45,72.84,3.03,9.9,7.46,19.34,13.29,28.3ZM443.79,421.12v8.28s.02-2.76.02-8.28v-8.31s-.02,2.77-.02,8.31Z"/>
  <path class="cls-1" d="M319.46,214.1c-.25,16.48-1.46,29.85-3.63,40.11-3.58,16.94-14.44,24.39-32.58,22.36-7.11-.8-12.54-1.81-16.28-3.03-7.9-2.23-14.16-4.37-18.77-6.44-33.18-14.83-58.24-38.05-75.18-69.66-15.62-29.11-24.12-60.34-25.5-93.69-.09-1.97,1.29-3.7,3.23-4.05,3.39-.64,7.63-.64,12.74,0,49.82,6.17,95.29,24.3,127.56,61.6,13.99,16.18,23.46,33.78,28.42,52.8ZM203.24,155.47l101.62,107.83c.13.15.36.16.5.03,0,0,0,0,0,0l.42-.42c2.06-1.85-15.24-23.49-38.64-48.32-.02-.02-.05-.05-.07-.07l-17.39-18.44c-23.36-24.79-43.95-43.38-46.01-41.53l-.45.42c-.14.14-.15.36,0,.5,0,0,0,0,0,0Z"/>
</svg>